# xmcd
#
# Track frame offsets:
#	150
#	13006
#	23821
#	39780
#
# Disc length: 709 seconds
#
# Revision: 0
# Processed by: cddbd v1.5.2PL0 Copyright (c) Steve Scherf et al.
# Submitted via: audiograbber 1.83.01
#
DISCID=2002c304
DTITLE=The Cheaters - You Want More?!
DYEAR=1900
DGENRE=garage rock
TTITLE0=She Said No
TTITLE1=I Found Love
TTITLE2=I Got A Feeling
TTITLE3=Walk With Me
EXTD=
EXTT0=
EXTT1=
EXTT2=
EXTT3=
PLAYORDER=
